# xmcd CD database file
#
# Track frame offsets:
#	150
#	20388
#	43355
#	70888
#	94488
#	119723
#	135458
#	154485
#	178865
#	204825
#	229735
#
# Disc length: 3360 seconds
#
# Revision: 1
# Processed by: cddbd v1.5.2PL0 Copyright (c) Steve Scherf et al.
# Submitted via: CDex 1.51
#
DISCID=a10d1e0b
DTITLE=Boz Scaggs - But Beautiful
DYEAR=2003
DGENRE=Rock
TTITLE0=What's New?
TTITLE1=Never Let Me Go
TTITLE2=How Long Has This Been Going On?
TTITLE3=Sophisticated Lady
TTITLE4=But Beautiful
TTITLE5=Bewitched, Bothered And Bewildered
TTITLE6=Easy Living
TTITLE7=I Should Care
TTITLE8=You Don't Know What Love Is
TTITLE9=For All We Know
TTITLE10=My Funny Valentine
EXTD=YEAR: 2003
EXTT0=
EXTT1=
EXTT2=
EXTT3=
EXTT4=
EXTT5=
EXTT6=
EXTT7=
EXTT8=
EXTT9=
EXTT10=
PLAYORDER=
